PathFileType  4	(X/Y/Z) C:\Users\antoi\Documents\MyRepositories\mobilecap\ResultsAnalysis
DataRate	CameraRate	NumFrames	NumMarkers	Units	OrigDataRate	OrigDataStartFrame	OrigNumFrames
100.0	100.0	6	51	mm	100.0	530	1411
Frame#	Time	r_knee			r_shank_antsup			r_ankle			r_calc			r_5meta			r_toe			L_knee			L_shank_antsup			L_ankle			L_calc			L_5meta			L_toe			r_sh2			r_sh3			r_sh4			L_sh2			L_sh3			r_thigh1			r_thigh2			r_thigh3			r_thigh4			r_thigh5			L_thigh1			L_thigh2			L_thigh3			L_thigh4			r.ASIS			r.PSIS			L.ASIS			L.PSIS			C7			R_Shoulder			L_Shoulder			R_Sternum			L_Sternum			R_humerus			R_elbow_med			R_elbow_lat			R_forearm			R_wrist_radius			R_wrist_ulna			L_humerus			L_elbow_med			L_elbow_lat			L_forearm			L_wrist_radius			L_wrist_ulna			R_HJC			L_HJC			R_HJC_reg			L_HJC_reg			
		X1	Y1	Z1	X2	Y2	Z2	X3	Y3	Z3	X4	Y4	Z4	X5	Y5	Z5	X6	Y6	Z6	X7	Y7	Z7	X8	Y8	Z8	X9	Y9	Z9	X10	Y10	Z10	X11	Y11	Z11	X12	Y12	Z12	X13	Y13	Z13	X14	Y14	Z14	X15	Y15	Z15	X16	Y16	Z16	X17	Y17	Z17	X18	Y18	Z18	X19	Y19	Z19	X20	Y20	Z20	X21	Y21	Z21	X22	Y22	Z22	X23	Y23	Z23	X24	Y24	Z24	X25	Y25	Z25	X26	Y26	Z26	X27	Y27	Z27	X28	Y28	Z28	X29	Y29	Z29	X30	Y30	Z30	X31	Y31	Z31	X32	Y32	Z32	X33	Y33	Z33	X34	Y34	Z34	X35	Y35	Z35	X36	Y36	Z36	X37	Y37	Z37	X38	Y38	Z38	X39	Y39	Z39	X40	Y40	Z40	X41	Y41	Z41	X42	Y42	Z42	X43	Y43	Z43	X44	Y44	Z44	X45	Y45	Z45	X46	Y46	Z46	X47	Y47	Z47	X48	Y48	Z48	X49	Y49	Z49	X50	Y50	Z50	X51	Y51	Z51	

530	5.29000000	-239.71945	452.75293	-399.13946	-213.00001	388.54145	-369.71220	-270.56691	92.98978	-405.83783	-334.80026	54.54753	-447.36493	-168.80421	50.94827	-373.06719	-125.08599	77.19249	-424.73057	-240.52881	450.13877	-807.70153	-190.76762	388.10405	-817.36188	-260.43333	92.71868	-785.96132	-326.25282	55.59013	-735.86988	-167.54081	48.56767	-812.74789	-119.39301	81.42247	-764.74316	-228.05545	276.51881	-364.78809	-284.40386	396.25316	-389.26930	-307.01814	282.06405	-387.71469	-278.10398	403.23419	-831.32602	-285.62908	281.09647	-830.02974	-517.19605	572.94981	-460.22070	-409.68486	563.04465	-431.68219	-400.61029	520.97747	-380.88826	-543.68555	493.29893	-383.13813	-428.80430	471.12143	-374.75940	-507.31689	562.59159	-771.16131	-370.53174	550.25243	-786.04775	-525.56882	451.63026	-804.19225	-383.80766	447.51644	-818.31079	-545.26751	588.22086	-468.03171	-723.61159	588.97852	-545.97753	-538.08461	585.48018	-723.86695	-724.24851	584.58173	-652.51224	-543.04508	1038.81661	-578.83955	-467.57973	985.23752	-435.66202	-461.22791	991.56038	-734.84414	-429.52575	945.78574	-564.26036	-428.90225	944.73331	-604.84659	-407.11228	784.77028	-324.08854	-411.12797	662.50098	-359.01312	-393.28286	705.03586	-292.54969	-310.98901	764.44666	-349.27665	-238.56105	815.54634	-415.92094	-210.65891	780.31864	-411.70121	-421.65781	877.33169	-797.88736	-432.02969	653.77580	-794.79118	-429.27469	675.52289	-865.19798	-336.98470	738.81140	-842.18651	-249.49761	797.53859	-788.68546	-226.18102	769.23847	-792.70081	-601.57317	507.04883	-496.16749	-593.75523	507.81781	-696.30574	-596.72243	504.25638	-500.36795	-597.73016	497.29229	-669.14864	
531	5.30000000	-239.16059	453.06238	-398.62045	-212.63688	388.57012	-369.37145	-270.32952	92.93633	-405.79113	-334.65956	54.72375	-447.42177	-168.73821	50.62896	-372.96666	-124.76565	76.58152	-424.56166	-240.00127	450.01682	-807.57852	-190.33242	388.03054	-817.21158	-260.01996	92.68401	-785.86474	-326.05452	55.70941	-735.81407	-167.26870	48.57782	-813.16397	-119.03506	80.63352	-764.51252	-227.76766	276.65017	-364.38198	-284.18638	396.26458	-389.01874	-306.63232	281.94197	-387.47025	-277.73865	403.13449	-831.20673	-285.41212	280.89794	-829.64528	-516.59184	572.13841	-460.77481	-409.70131	562.29332	-432.19903	-400.24690	520.90520	-380.93127	-543.28620	492.99604	-383.16877	-428.32521	471.10535	-374.48461	-507.27940	561.43991	-771.24416	-370.31420	549.62339	-785.92871	-524.85579	450.45366	-804.27543	-383.19383	446.85550	-818.12797	-546.12487	587.25908	-468.27923	-725.11403	585.52040	-545.95222	-539.36197	584.84836	-724.39233	-725.89246	580.71671	-652.40076	-552.09471	1037.94717	-578.48827	-477.21572	985.41376	-434.71266	-470.98719	991.34101	-735.10369	-436.86913	946.91677	-563.96368	-436.40103	945.57798	-604.51686	-416.14346	784.03092	-323.74554	-420.70016	661.70283	-359.01794	-402.71059	704.14753	-292.05546	-320.51971	763.58719	-348.91039	-247.96075	814.71770	-415.46426	-220.29345	779.48581	-411.42835	-431.16794	877.13143	-798.47668	-443.78917	653.43244	-795.22374	-441.03238	675.21919	-865.47868	-348.56289	738.27860	-843.12459	-260.80919	796.87495	-789.92223	-237.62127	768.40151	-793.90429	-601.42392	505.29992	-496.41068	-594.05385	506.22915	-696.56585	-596.71182	503.07318	-500.25163	-597.94822	495.45190	-669.17610	
532	5.31000000	-238.71844	453.39696	-398.07673	-212.26183	388.55540	-369.03578	-270.11610	92.95416	-405.68788	-334.50572	54.90561	-447.44842	-168.57755	50.24805	-372.99849	-124.50244	76.01078	-424.51346	-239.37764	449.96254	-807.60614	-189.83699	387.93482	-817.09550	-259.68713	92.59365	-785.65126	-325.93792	55.81036	-735.84637	-167.04645	48.66959	-813.59641	-118.72327	80.08992	-764.35156	-227.31477	276.72291	-364.05088	-283.82896	396.25980	-388.57266	-306.14545	281.76234	-387.35524	-277.32529	402.97450	-830.97506	-285.07474	280.74912	-829.28098	-516.19494	571.94253	-460.44035	-409.23538	562.02623	-432.33600	-399.74540	520.99196	-380.83741	-542.68678	492.60326	-383.30413	-427.72648	471.17979	-374.10175	-507.07715	560.38372	-771.33418	-370.02391	549.04165	-785.88140	-524.01655	449.24010	-804.39172	-382.44350	446.21729	-818.03590	-547.02911	586.43015	-468.30612	-726.42820	582.31555	-546.08738	-540.28083	584.92673	-726.08923	-727.35753	577.22845	-652.36981	-560.66207	1037.05228	-578.02882	-486.59412	984.92363	-433.51452	-481.73430	990.10373	-735.54971	-443.98651	947.48279	-563.57740	-443.69609	946.28724	-604.46771	-425.18439	782.92237	-323.31655	-430.27804	660.37354	-358.69828	-411.91789	702.96449	-291.59228	-329.98530	762.50135	-348.48042	-257.56096	813.84879	-415.08011	-229.84791	778.59130	-411.14138	-440.81439	876.49429	-799.04394	-455.23748	652.78321	-795.76331	-452.50331	674.62638	-865.85525	-360.04588	737.55502	-843.99181	-272.07691	796.12383	-791.11554	-248.99146	767.48700	-795.04799	-601.04837	503.76379	-497.12260	-594.18560	505.24193	-697.29070	-596.55060	501.83679	-500.21422	-598.03902	493.69936	-670.21253	
533	5.32000000	-238.43589	453.43181	-397.48218	-212.01103	388.48507	-368.65905	-269.91293	92.99609	-405.60156	-334.37942	55.05269	-447.43035	-168.31204	49.80169	-373.17504	-124.32293	75.51753	-424.56927	-238.69203	449.99456	-807.73313	-189.33077	387.85886	-817.02807	-259.52229	92.55234	-785.49337	-325.91200	55.85009	-735.85917	-166.94602	48.66214	-813.74850	-118.56626	79.86258	-764.30418	-226.96803	276.62524	-363.87982	-283.50217	396.10147	-388.10966	-305.79378	281.59687	-387.32177	-276.86390	402.84506	-830.66414	-284.65592	280.73671	-829.14942	-516.05062	572.02912	-459.68621	-408.42644	562.28384	-432.26451	-399.18768	521.27171	-380.60489	-542.07775	492.24043	-383.41117	-427.11861	471.34219	-373.68848	-506.67178	559.37424	-771.44632	-369.62817	548.51455	-785.91618	-523.22023	448.04270	-804.30088	-381.59911	445.65093	-818.07962	-547.87776	585.85278	-468.13955	-727.60995	579.41145	-546.33152	-540.70496	585.42202	-728.65896	-728.40860	574.07389	-652.41135	-568.79351	1036.35580	-577.58718	-495.76369	984.20646	-432.04684	-492.05610	989.12332	-736.29176	-450.91982	947.70214	-563.20917	-450.73291	946.71971	-604.57674	-434.15544	781.46275	-322.75808	-439.60624	658.86663	-358.24793	-420.99588	701.46088	-291.25417	-339.45309	761.23330	-348.03268	-267.24332	812.80680	-414.72746	-239.42491	777.62600	-410.84156	-450.61558	875.45303	-799.59906	-466.43234	651.76287	-796.38788	-463.79699	673.75363	-866.35486	-371.38014	736.55979	-844.64638	-283.39571	795.15213	-792.09260	-260.30007	766.54751	-796.17746	-600.43340	502.52016	-498.08470	-594.02044	504.65547	-698.26191	-596.38207	500.62796	-500.30302	-597.67193	491.98293	-672.08893	
534	5.33000000	-238.10423	453.38015	-396.87882	-211.85614	388.43853	-368.21467	-269.69795	93.01699	-405.58388	-334.28074	55.18265	-447.40421	-168.06418	49.35023	-373.41628	-124.17159	75.13707	-424.62469	-237.98602	450.02741	-807.74861	-188.87777	387.85164	-816.99996	-259.49684	92.59549	-785.44075	-325.92085	55.85085	-735.78447	-166.94005	48.63485	-813.71641	-118.55445	79.82887	-764.30346	-226.78952	276.48621	-363.71536	-283.30241	395.88465	-387.75740	-305.55535	281.53946	-387.19644	-276.37180	402.95016	-830.44832	-284.29295	280.79177	-829.18742	-515.85643	571.87435	-459.60876	-407.79978	562.51727	-432.22977	-398.72074	521.53085	-380.42795	-541.64440	492.08532	-383.46532	-426.63307	471.53264	-373.34297	-506.17779	558.65379	-771.85789	-369.08581	548.09323	-786.05764	-522.51042	447.09448	-804.12982	-380.77327	445.18807	-818.15119	-548.66156	585.55419	-467.88948	-728.74833	576.84941	-546.59464	-541.39570	585.21362	-729.07486	-729.14616	571.29700	-652.38903	-576.39132	1036.05553	-577.28787	-504.83388	983.66416	-430.43570	-501.41004	988.88600	-737.34804	-457.59730	947.81350	-562.86187	-457.49074	946.95762	-604.69043	-443.05019	779.66490	-322.15571	-448.96467	657.18751	-357.80620	-430.15002	699.73522	-290.79921	-348.90767	759.84014	-347.61676	-276.87158	811.60972	-414.35177	-249.02171	776.54173	-410.55337	-460.54853	874.05654	-800.16940	-477.49542	650.46259	-796.90099	-475.08378	672.72730	-866.97467	-382.56491	735.28614	-845.15105	-294.71668	793.98212	-792.89270	-271.53263	765.55043	-797.31422	-600.29129	501.55589	-498.14802	-593.81056	503.72497	-698.32304	-596.52043	499.78964	-500.14173	-597.16781	490.75229	-672.35193	
535	5.34000000	-237.70784	453.48844	-396.44581	-211.73310	388.44345	-367.79090	-269.54860	93.06188	-405.56317	-334.21918	55.30965	-447.41910	-167.95448	49.07028	-373.54647	-124.04311	74.93630	-424.61162	-237.33520	450.06115	-807.62437	-188.51948	387.88649	-816.89804	-259.52099	92.68096	-785.44728	-325.92665	55.85418	-735.69209	-166.96297	48.67970	-813.69150	-118.58342	79.84474	-764.29386	-226.62372	276.50143	-363.46257	-283.19602	395.82963	-387.43763	-305.35160	281.63846	-386.88064	-275.89093	403.30456	-830.42797	-284.02965	280.78419	-829.10644	-515.55975	571.52886	-460.24342	-407.49952	562.49191	-432.16199	-398.47676	521.62939	-380.36309	-541.42300	492.03001	-383.59525	-426.35654	471.70237	-373.04548	-505.65644	558.37484	-772.54047	-368.46094	547.84446	-786.30821	-521.81416	446.51245	-804.11736	-380.03647	444.83963	-818.21744	-549.49074	585.38690	-467.97080	-729.87032	574.75818	-546.89248	-542.68653	584.47056	-727.11525	-729.93030	569.12341	-652.41331	-583.31691	1036.22203	-577.09783	-513.61815	983.32250	-428.83371	-510.35183	988.84359	-738.75543	-463.97896	947.87393	-562.46284	-464.00046	947.19514	-604.66467	-452.15125	777.52933	-321.64751	-458.39655	655.29693	-357.37103	-439.43432	697.96184	-290.23714	-358.32608	758.35855	-347.18971	-286.40876	810.35810	-413.89440	-258.54165	775.29469	-410.19611	-470.54458	872.44200	-800.89678	-488.44569	649.16958	-797.13533	-486.39851	671.69293	-867.59392	-393.68965	733.95907	-845.79143	-305.86258	792.68522	-793.75922	-282.60360	764.31706	-798.31449	-600.82166	500.80433	-497.51438	-593.89818	502.62259	-697.67892	-596.98343	499.47310	-499.97177	-597.08210	490.34968	-670.82415	
